<svg xmlns="http://www.w3.org/2000/svg" fill="#fff" stroke="#fff" viewBox="0 0 21 21"><g fill="none" fill-rule="evenodd" stroke-linecap="round" stroke-linejoin="round"><path d="M16.5 15.5v-10c0-1.1045695-.8954305-2-2-2h-8c-1.1045695 0-2 .8954305-2 2v10c0 1.1045695.8954305 2 2 2h8c1.1045695 0 2-.8954305 2-2zM7.5 7.5h6M7.5 10.5h6M7.5 13.5h6"/><path d="M16.5 15.5v-10c0-1.1045695-.8954305-2-2-2h-8c-1.1045695 0-2 .8954305-2 2v10c0 1.1045695.8954305 2 2 2h8c1.1045695 0 2-.8954305 2-2zM7.5 7.5h6M7.5 10.5h6M7.5 13.5h6"/></g></svg>