<?xml version="1.0" encoding="utf-8"?>
<svg viewBox="235.548 177.739 49.612 44.005" width="49.612" height="44.005" xmlns="http://www.w3.org/2000/svg">
  <path d="M 271.243 189.001 L 261.995 189.001 L 261.696 186.316 C 263.36 185.754 264.48 184.194 264.481 182.438 C 264.507 180.176 262.666 178.335 260.403 178.36 C 258.16 178.343 256.353 180.196 256.425 182.438 C 256.445 184.105 257.465 185.595 259.011 186.217 L 258.713 189.001 L 249.463 189.001 C 245.997 188.987 243.184 191.801 243.198 195.267 L 243.198 208.097 C 243.184 211.564 245.998 214.377 249.464 214.362 L 252.746 214.362 L 252.746 218.44 C 252.761 219.172 253.241 219.812 253.939 220.03 C 254.893 220.218 255.789 219.511 255.829 218.539 L 255.829 217.545 C 255.807 217.317 255.998 217.126 256.226 217.147 C 256.473 217.122 256.695 217.299 256.724 217.545 L 256.724 218.539 C 256.739 219.271 257.219 219.912 257.917 220.13 C 258.871 220.318 259.768 219.61 259.807 218.638 L 259.807 217.644 C 259.785 217.416 259.977 217.224 260.205 217.246 C 260.452 217.222 260.673 217.399 260.702 217.644 L 260.702 218.639 C 260.717 219.371 261.197 220.011 261.895 220.229 C 262.849 220.417 263.745 219.71 263.785 218.738 L 263.785 217.743 C 263.763 217.515 263.955 217.324 264.183 217.346 C 264.429 217.322 264.65 217.498 264.68 217.743 L 264.62 218.587 C 264.634 219.319 265.115 219.961 265.813 220.179 C 266.767 220.367 267.664 219.659 267.703 218.687 L 267.763 214.76 L 271.045 214.76 C 274.512 214.774 277.325 211.961 277.31 208.494 L 277.31 195.267 C 277.528 191.8 274.717 188.896 271.244 189.001 L 271.243 189.001 Z M 252.249 209.887 C 248.498 209.887 246.154 205.827 248.029 202.578 C 249.905 199.329 254.594 199.329 256.469 202.578 C 256.897 203.318 257.122 204.158 257.122 205.013 C 257.154 207.718 254.954 209.918 252.249 209.887 Z M 262.195 212.572 L 258.713 212.572 C 258.315 212.572 258.116 212.174 258.315 211.776 L 260.105 208.693 C 260.329 208.396 260.776 208.396 261 208.693 L 262.79 211.776 C 262.79 212.174 262.591 212.572 262.194 212.572 L 262.195 212.572 Z M 268.56 209.887 C 264.809 209.887 262.465 205.827 264.34 202.578 C 266.216 199.329 270.905 199.329 272.78 202.578 C 273.208 203.318 273.433 204.158 273.433 205.013 C 273.465 207.718 271.265 209.918 268.56 209.887 Z M 241.806 206.605 C 241.768 207.012 241.418 207.318 241.01 207.301 C 238.502 206.758 236.743 204.496 236.833 201.93 C 236.743 199.366 238.502 197.104 241.01 196.56 C 241.431 196.506 241.804 196.832 241.806 197.256 L 241.806 206.605 Z M 279.001 206.605 C 279.001 207.002 279.399 207.4 279.697 207.301 C 282.205 206.758 283.964 204.496 283.874 201.931 C 283.965 199.366 282.206 197.104 279.697 196.56 C 279.299 196.46 279.001 196.858 279.001 197.256 L 279.001 206.605 Z" style="fill: rgb(255, 187, 51);" transform="matrix(0.9999999999999999, 0, 0, 0.9999999999999999, 0, -3.552713678800501e-15)"/>
</svg>